HIERARCHY
ROOT Hips
{
	OFFSET 0.00000 0.00000 0.00000
	CHANNELS 6 Xposition Yposition Zposition Zrotation Yrotation Xrotation 
	JOINT LHipJoint
	{
		OFFSET 0 0 0
		CHANNELS 3 Zrotation Yrotation Xrotation
		JOINT LeftHip
		{
			OFFSET 1.53139 -1.83434 0.76626
			CHANNELS 3 Zrotation Yrotation Xrotation
			JOINT LeftKnee
			{
				OFFSET 2.56112 -7.03663 0.00000
				CHANNELS 3 Zrotation Yrotation Xrotation
				JOINT LeftAnkle
				{
					OFFSET 2.59983 -7.14299 0.00000
					CHANNELS 3 Zrotation Yrotation Xrotation
					JOINT LeftToe
					{
						OFFSET 0.13742 -0.37757 2.00054
						CHANNELS 3 Zrotation Yrotation Xrotation
						End Site
						{
							OFFSET 0.00000 -0.00000 1.02897
						}
					}
				}
			}
		}
	}
	JOINT RHipJoint
	{
		OFFSET 0 0 0
		CHANNELS 3 Zrotation Yrotation Xrotation
		JOINT RightHip
		{
			OFFSET -1.40122 -1.83435 0.76627
			CHANNELS 3 Zrotation Yrotation Xrotation
			JOINT RightKnee
			{
				OFFSET -2.54052 -6.98003 0.00000
				CHANNELS 3 Zrotation Yrotation Xrotation
				JOINT RightAnkle
				{
					OFFSET -2.63179 -7.23079 0.00000
					CHANNELS 3 Zrotation Yrotation Xrotation
					JOINT RightToe
					{
						OFFSET -0.24131 -0.66299 2.03908
						CHANNELS 3 Zrotation Yrotation Xrotation
						End Site
						{
							OFFSET -0.00000 -0.00000 1.07391
						}
					}
				}
			}
		}
	}
	JOINT lowerback
	{
		OFFSET 0 0 0
		CHANNELS 3 Zrotation Yrotation Xrotation
		JOINT Chest
		{
			OFFSET 0.01174 2.10302 -0.29778
			CHANNELS 3 Zrotation Yrotation Xrotation
			JOINT Chest2
			{
				OFFSET 0.00772 2.13227 -0.01247
				CHANNELS 3 Zrotation Yrotation Xrotation
				JOINT lowerneck
				{
					OFFSET 0 0 0
					CHANNELS 3 Zrotation Yrotation Xrotation
					JOINT Neck
					{
						OFFSET -0.09219 1.60848 0.31481
						CHANNELS 3 Zrotation Yrotation Xrotation
						JOINT Head
						{
							OFFSET 0.13974 1.65456 -0.31134
							CHANNELS 3 Zrotation Yrotation Xrotation
							End Site
							{
								OFFSET 0.04742 1.69515 -0.14578
							}
						}
					}
				}
				JOINT LeftCollar
				{
					OFFSET 0 0 0
					CHANNELS 3 Zrotation Yrotation Xrotation
					JOINT LeftShoulder
					{
						OFFSET 3.24909 1.02882 -0.23993
CHANNELS 3 Zrotation Xrotation Yrotation
						JOINT LeftElbow
						{
OFFSET 0 -5.329550 -0.000000
CHANNELS 3 Zrotation Xrotation Yrotation
							JOINT LeftWrist
							{
OFFSET 0 -3.692320 -0.000000
CHANNELS 3 Zrotation Xrotation Yrotation
								JOINT lhand
								{
									OFFSET 0 0 0
CHANNELS 3 Zrotation Xrotation Yrotation
									JOINT LFingers
									{
OFFSET 0 -0.536600 -0.000000
CHANNELS 3 Zrotation Xrotation Yrotation
										End Site
										{
OFFSET 0 -0.432620 -0.000000
										}
									}
								}
								JOINT LThumb
								{
OFFSET 0 0.000000 0.000000
CHANNELS 3 Zrotation Xrotation Yrotation
									End Site
									{
OFFSET 0 -0.439220 0.439220
									}
								}
							}
						}
					}
				}
				JOINT RightCollar
				{
					OFFSET 0 0 0
					CHANNELS 3 Zrotation Yrotation Xrotation
					JOINT RightShoulder
					{
						OFFSET -3.21387 0.93002 -0.34594
CHANNELS 3 Zrotation Xrotation Yrotation
						JOINT RightElbow
						{
OFFSET 0 -5.234310 0.000000
CHANNELS 3 Zrotation Xrotation Yrotation
							JOINT RightWrist
							{
OFFSET 0 -3.553010 -0.000000
CHANNELS 3 Zrotation Xrotation Yrotation
								JOINT rhand
								{
									OFFSET 0 0 0
CHANNELS 3 Zrotation Xrotation Yrotation
									JOINT RFingers
									{
OFFSET 0 -0.772520 -0.000000
CHANNELS 3 Zrotation Xrotation Yrotation
										End Site
										{
OFFSET 0 -0.622830 -0.000000
										}
									}
								}
								JOINT RThumb
								{
OFFSET 0 0.000000 0.000000
CHANNELS 3 Zrotation Xrotation Yrotation
									End Site
									{
OFFSET 0 -0.632340 0.632340
									}
								}
							}
						}
					}
				}
			}
		}
	}
}
MOTION
Frames: 8
Frame Time: 0.008333333333333333
14.453592 17.777284 -10.935923 179.833982 -47.334314 -901.982626 0.000000 0.000000 0.000000 -31.078732 -0.427502 1.283817 0.865061 5.930531 16.583020 -1.060900 -19.404764 -0.884929 1.588757 7.950905 22.565156 0.000000 0.000000 0.000000 11.587587 20.306622 -16.475765 -4.323594 -12.577700 37.809670 -0.494684 8.254980 -12.962385 -0.465270 4.373010 -12.129014 -2.895664 -0.102015 11.152768 0.583618 -0.524036 0.749520 2.329764 -0.206513 -5.443868 -10.201446 -3.808144 -19.383440 6.331425 -4.756937 27.712631 3.328906 -2.605583 12.883751 0.000000 0.000000 0.000000 3.493952 5.073482 -31.598398 23.335223 -34.453179 7.327112 16.384038 10.657804 -22.066253 0.000000 0.000000 0.000000 -7.125000 0.000000 0.000000 -12.804910 52.434278 2.374789 0.000000 0.000000 0.000000 -3.369930 4.549094 18.959001 -16.891856 -26.715007 -4.038561 -17.151043 2.778439 -8.047187 0.000000 0.000000 0.000000 7.125000 0.000000 0.000000 7.026887 21.587693 3.977937
14.029168 17.794922 -11.418602 181.180240 -54.184619 -902.583730 0.000000 0.000000 0.000000 -29.816536 -0.557888 4.028918 0.788981 5.670246 15.830668 -1.461642 -21.873999 0.985864 1.689575 8.184984 23.278550 0.000000 0.000000 0.000000 13.219733 17.100618 -18.369983 -2.671539 -10.142839 29.440940 0.362009 17.657937 -8.673558 -0.241750 3.159535 -8.723616 -2.221162 0.079281 11.056488 0.676647 -0.185489 0.728936 1.992619 -0.052691 -5.433201 -9.700263 -3.769318 -19.089787 6.111058 -4.780024 27.655450 3.157673 -2.578001 12.780749 0.000000 0.000000 0.000000 3.708900 4.995506 -33.184379 23.801683 -34.953846 7.592664 17.034942 9.599946 -21.933392 0.000000 0.000000 0.000000 -7.125000 0.000000 0.000000 -12.107916 52.415665 2.236845 0.000000 0.000000 0.000000 -3.752036 4.680774 19.363917 -16.634396 -26.373277 -3.923546 -16.848287 2.099469 -7.902040 0.000000 0.000000 0.000000 7.125000 0.000000 0.000000 7.249295 21.752647 4.078448
13.571976 17.861338 -11.866858 180.301417 -60.728948 -901.462544 0.000000 0.000000 0.000000 -29.722430 -1.864981 6.835512 0.762743 5.576803 15.561353 -1.685459 -22.347691 6.223697 2.597761 10.013180 29.019763 0.000000 0.000000 0.000000 14.477043 13.806770 -19.755150 -2.146055 -9.163774 26.309058 0.710019 18.960570 -5.824750 -0.045904 1.355339 -3.727413 -3.009092 0.430596 11.256640 0.458540 0.166065 0.760313 2.154558 0.138344 -5.532430 -10.091137 -3.911789 -19.336454 6.681252 -4.946207 27.664028 3.423562 -2.591621 12.881471 0.000000 0.000000 0.000000 3.439316 4.931196 -30.721513 22.402893 -33.429044 6.806553 16.930358 11.731581 -23.323281 0.000000 0.000000 0.000000 -7.125000 0.000000 0.000000 -12.809804 53.790269 2.789431 0.000000 0.000000 0.000000 -3.510601 4.370979 17.735030 -16.601559 -26.329422 -3.909019 -16.969799 4.004738 -7.612906 0.000000 0.000000 0.000000 7.125000 0.000000 0.000000 7.167729 22.046168 3.983546
13.003175 17.913194 -12.318051 182.377407 -67.363031 -903.019639 0.000000 0.000000 0.000000 -28.321988 -5.257293 7.573542 1.307588 7.243441 20.438689 -1.795248 -22.943736 10.348424 3.049967 10.774791 31.524891 0.000000 0.000000 0.000000 16.548179 13.346240 -17.869343 -1.865179 -8.579429 24.488458 0.911185 18.448293 -1.755744 -0.075874 1.776651 -4.888741 -2.023777 0.365103 10.837937 0.334663 0.211189 0.813161 1.460760 0.133746 -5.240287 -9.401056 -3.715039 -19.078782 6.152779 -4.672335 27.337594 3.144468 -2.445458 12.632630 0.000000 0.000000 0.000000 4.498211 5.820938 -27.528619 20.443807 -31.172897 5.759515 17.353031 12.384997 -22.320444 0.000000 0.000000 0.000000 -7.125000 0.000000 0.000000 -11.951426 52.859778 2.337761 0.000000 0.000000 0.000000 -2.937368 4.311142 18.383285 -16.598685 -26.325635 -3.907682 -18.172007 3.932472 -7.921428 0.000000 0.000000 0.000000 7.125000 0.000000 0.000000 6.288756 21.667366 3.543408
12.302051 17.929443 -12.747933 180.963179 -75.127555 -902.000023 0.000000 0.000000 0.000000 -27.974537 -7.173281 7.207309 2.260146 9.386745 27.013906 -1.394253 -22.485548 18.906254 3.288122 11.147411 32.778675 0.000000 0.000000 0.000000 16.674661 10.286165 -14.906958 -2.045310 -8.959777 25.669640 0.471761 15.285037 -4.428458 -0.005320 0.411241 -1.130021 -1.849146 0.552691 10.739276 0.272355 0.486531 0.720068 1.255186 0.268883 -5.291641 -10.129181 -3.961813 -18.928219 5.383942 -4.590506 28.123153 2.997730 -2.599506 12.920741 0.000000 0.000000 0.000000 4.515619 6.129443 -23.363768 17.682296 -27.748234 4.400392 13.204627 13.480086 -21.468466 0.000000 0.000000 0.000000 -7.125000 0.000000 0.000000 -15.642392 51.307968 2.476988 0.000000 0.000000 0.000000 -3.503804 5.526043 18.764905 -17.304995 -27.258108 -4.226112 -16.602833 3.105798 -8.177569 0.000000 0.000000 0.000000 7.125000 0.000000 0.000000 7.420909 21.479616 4.223061
11.600556 17.979534 -13.103335 192.120339 -81.448589 -913.498526 0.000000 0.000000 0.000000 -23.774392 -8.118890 0.586515 4.664327 12.993497 39.347459 2.453657 -13.890832 37.088801 3.815895 11.911231 35.418773 0.000000 0.000000 0.000000 18.971063 5.673582 -11.237246 -1.860184 -8.568405 24.454349 0.211793 13.833089 -6.905673 -0.123689 -2.177660 6.000214 -0.030607 1.152166 10.407109 0.721542 1.512864 1.230096 0.555869 0.732391 -4.572593 -9.362471 -3.662026 -19.160079 4.297869 -3.980482 28.217496 2.550382 -2.369132 12.906464 0.000000 0.000000 0.000000 4.551225 5.503090 -18.477073 15.920258 -25.412325 3.611668 17.749675 15.076905 -24.080770 0.000000 0.000000 0.000000 -7.125000 0.000000 0.000000 -12.321519 54.694351 2.967091 0.000000 0.000000 0.000000 -3.723196 4.858125 18.884653 -16.572926 -26.291335 -3.896271 -16.633602 3.435452 -7.908447 0.000000 0.000000 0.000000 7.125000 0.000000 0.000000 7.404767 21.756099 4.166801
10.971636 18.010509 -13.389190 268.064641 -85.599996 -989.577027 0.000000 0.000000 0.000000 -17.978320 -9.616863 -7.893027 7.549835 15.777316 50.923477 -1.102435 -22.412194 22.340794 0.029088 0.509129 1.400248 0.000000 0.000000 0.000000 22.929163 1.595769 -7.123174 -1.460777 -7.638746 21.621969 -0.262489 8.536938 -10.182348 -0.031594 1.147485 -3.154770 2.954222 1.396942 11.203081 1.310752 2.233060 1.137699 -0.632615 1.027014 -5.029694 -9.188087 -3.478441 -19.111404 4.535293 -3.811840 28.417211 2.650451 -2.232159 12.962856 0.000000 0.000000 0.000000 6.232780 5.848309 -21.680017 16.412127 -26.076292 3.825341 21.430617 14.258688 -23.946029 0.000000 0.000000 0.000000 -7.125000 0.000000 0.000000 -8.469599 55.286950 2.143529 0.000000 0.000000 0.000000 -4.875943 4.769227 21.303969 -16.683111 -26.438019 -3.945293 -17.089202 2.678877 -7.981250 0.000000 0.000000 0.000000 7.125000 0.000000 0.000000 7.073013 21.659035 3.992953
10.388735 18.030574 -13.544565 335.936376 -81.875377 -1057.047179 0.000000 0.000000 0.000000 -16.815667 -7.462873 -16.415355 8.016361 16.131224 52.621429 -0.779025 -16.146219 0.813754 0.315672 -3.611081 -9.985111 0.000000 0.000000 0.000000 22.967527 -0.026355 -5.282150 -1.488945 -7.708831 21.833165 -0.560558 1.514849 -13.706007 -0.068641 1.631429 -4.489780 2.415093 1.641801 11.398651 0.816181 2.479027 1.182673 -0.889462 1.158120 -5.084238 -8.833023 -3.330974 -19.675774 4.391625 -3.589805 28.952764 2.580494 -2.102827 13.272252 0.000000 0.000000 0.000000 6.570419 6.452251 -22.217234 18.088392 -28.270101 4.591033 16.931980 11.700625 -24.092251 0.000000 0.000000 0.000000 -7.125000 0.000000 0.000000 -13.157152 54.548099 3.127071 0.000000 0.000000 0.000000 -5.365051 3.116623 20.867900 -16.309457 -25.938354 -3.780246 -14.413578 3.355715 -8.609642 0.000000 0.000000 0.000000 7.125000 0.000000 0.000000 8.986539 21.139480 5.204094
